<?xml version="1.0" encoding="UTF-8" standalone="no"?>
<!-- Created with Inkscape (http://www.inkscape.org/) -->

<svg
   width="512"
   height="512"
   viewBox="0 0 135.46665 135.46665"
   version="1.1"
   id="svg1"
   inkscape:version="1.3 (0e150ed6c4, 2023-07-21)"
   sodipodi:docname="logo.svg"
   inkscape:export-filename="logo.png"
   inkscape:export-xdpi="96"
   inkscape:export-ydpi="96"
   xmlns:inkscape="http://www.inkscape.org/namespaces/inkscape"
   xmlns:sodipodi="http://sodipodi.sourceforge.net/DTD/sodipodi-0.dtd"
   xmlns="http://www.w3.org/2000/svg"
   xmlns:svg="http://www.w3.org/2000/svg">
  <sodipodi:namedview
     id="namedview1"
     pagecolor="#ffffff"
     bordercolor="#000000"
     borderopacity="0.25"
     inkscape:showpageshadow="2"
     inkscape:pageopacity="0.0"
     inkscape:pagecheckerboard="0"
     inkscape:deskcolor="#d1d1d1"
     inkscape:document-units="mm"
     inkscape:zoom="0.70710678"
     inkscape:cx="239.7092"
     inkscape:cy="275.06454"
     inkscape:window-width="1920"
     inkscape:window-height="1009"
     inkscape:window-x="892"
     inkscape:window-y="114"
     inkscape:window-maximized="1"
     inkscape:current-layer="layer1" />
  <defs
     id="defs1" />
  <g
     inkscape:label="Calque 1"
     inkscape:groupmode="layer"
     id="layer1">
    <path
       id="rect4-3"
       style="fill:#000000;stroke:none;stroke-width:1.1609;stroke-linecap:round;stroke-linejoin:round;stroke-dasharray:none;paint-order:stroke markers fill"
       d="m 2.3445972,70.333053 c -1.0094637,-1.440126 -1.0094637,-3.759315 0,-5.199442 L 29.940859,25.764157 c 1.009473,-1.440125 2.634782,-1.439649 3.644246,4.79e-4 1.009473,1.440126 1.009473,3.758359 0,5.198486 L 7.8107939,67.733332 33.585105,104.50354 c 1.009473,1.44013 1.009473,3.75836 0,5.19849 -1.009464,1.44013 -2.634773,1.4406 -3.644246,4.8e-4 z" />
    <path
       id="rect4-3-6"
       style="fill:#000000;stroke:none;stroke-width:1.1609;stroke-linecap:round;stroke-linejoin:round;stroke-dasharray:none;paint-order:stroke markers fill"
       d="m 133.12207,65.133609 c 1.00946,1.440126 1.00946,3.759315 0,5.199441 l -27.59626,39.36945 c -1.00947,1.44013 -2.63477,1.43965 -3.64424,-4.7e-4 -1.00948,-1.44013 -1.00948,-3.75836 0,-5.19849 l 25.7743,-36.77021 -25.7743,-36.770208 c -1.00948,-1.440127 -1.00948,-3.75836 0,-5.198486 1.00947,-1.440128 2.63477,-1.440605 3.64424,-4.79e-4 z" />
    <path
       id="rect3-6"
       style="color:#000000;fill:#000000;stroke-linecap:round;stroke-linejoin:round;-inkscape-stroke:none;paint-order:stroke markers fill"
       d="M 58.304451 35.623149 A 0.98774373 0.98774373 0 0 0 58.058472 35.802983 A 0.98774373 0.98774373 0 0 0 57.631108 36.115108 A 0.98774373 0.98774373 0 0 0 57.482279 36.224662 L 32.98455 94.623165 A 0.98774373 0.98774373 0 0 0 33.02124 95.023657 A 0.98774373 0.98774373 0 0 0 33.060514 95.429834 A 0.98774373 0.98774373 0 0 0 33.595882 95.831877 A 0.98774373 0.98774373 0 0 0 33.857365 96.029281 L 96.675753 96.216866 A 0.98774373 0.98774373 0 0 0 97.665873 95.17972 L 95.691317 55.812614 A 0.98774373 0.98774373 0 0 0 95.687699 55.804862 L 95.677881 55.617277 A 0.98774373 0.98774373 0 0 0 95.150264 54.790971 L 58.839819 35.66604 A 0.98774373 0.98774373 0 0 0 58.511674 35.722884 A 0.98774373 0.98774373 0 0 0 58.304451 35.623149 z M 58.584021 38.705131 L 76.619096 66.331868 L 76.613411 66.335486 L 77.694999 67.989132 L 77.699133 67.986548 L 94.804549 94.185465 L 37.257674 94.027336 L 39.754679 92.419682 L 38.673092 90.767586 L 36.031392 92.468774 L 58.584021 38.705131 z M 61.290833 39.187272 L 92.910091 55.84362 L 86.332198 60.07902 L 87.412752 61.730599 L 93.796859 57.619222 L 95.422083 91.433695 L 79.390503 66.896692 L 83.003719 64.569702 L 81.922648 62.917607 L 78.312533 65.242013 L 61.290833 39.187272 z M 72.203861 69.175106 L 68.22891 71.734639 L 69.310498 73.387769 L 73.285449 70.828235 L 72.203861 69.175106 z M 63.81936 74.574259 L 59.957581 77.060929 L 61.039685 78.714058 L 64.900948 76.227389 L 63.81936 74.574259 z M 55.548547 79.900033 L 51.034094 82.807349 L 52.115165 84.460478 L 56.630135 81.553162 L 55.548547 79.900033 z M 46.624544 85.646969 L 43.082642 87.927966 L 44.164229 89.580062 L 47.706132 87.299581 L 46.624544 85.646969 z " />
  </g>
</svg>
